<mxfile host="app.diagrams.net" modified="2024-01-02T12:49:49.189Z" agent="Mozilla/5.0 (Windows NT 10.0; Win64; x64) AppleWebKit/537.36 (KHTML, like Gecko) Chrome/120.0.0.0 Safari/537.36" etag="zFjMZPWrO210Z8md7geW" version="22.1.16" type="device">
  <diagram name="Страница — 1" id="V76-lTr33Aotc5wgAYng">
    <mxGraphModel dx="1050" dy="1734" grid="1" gridSize="10" guides="1" tooltips="1" connect="1" arrows="1" fold="1" page="1" pageScale="1" pageWidth="827" pageHeight="1169" math="0" shadow="0">
      <root>
        <mxCell id="0" />
        <mxCell id="1" parent="0" />
        <mxCell id="1ngA957U-weyeT3DhX0T-1" value="Информационная система для просмотра или изменения данных о служащих и вооружении" style="rounded=0;whiteSpace=wrap;html=1;" parent="1" vertex="1">
          <mxGeometry x="330" y="300" width="150" height="70" as="geometry" />
        </mxCell>
        <mxCell id="1ngA957U-weyeT3DhX0T-2" value="Личные данные служащего" style="html=1;verticalAlign=bottom;endArrow=block;curved=0;rounded=0;entryX=-0.011;entryY=0.151;entryDx=0;entryDy=0;entryPerimeter=0;" parent="1" edge="1">
          <mxGeometry width="80" relative="1" as="geometry">
            <mxPoint x="140" y="320" as="sourcePoint" />
            <mxPoint x="329.9999999999999" y="320.07000000000005" as="targetPoint" />
          </mxGeometry>
        </mxCell>
        <mxCell id="1ngA957U-weyeT3DhX0T-6" value="Изменение данных в инф. системе&amp;nbsp;" style="html=1;verticalAlign=bottom;endArrow=block;curved=0;rounded=0;" parent="1" edge="1">
          <mxGeometry x="0.1111" y="10" width="80" relative="1" as="geometry">
            <mxPoint x="480" y="360" as="sourcePoint" />
            <mxPoint x="660" y="360" as="targetPoint" />
            <mxPoint as="offset" />
          </mxGeometry>
        </mxCell>
        <mxCell id="1ngA957U-weyeT3DhX0T-7" value="Информация для служащего" style="html=1;verticalAlign=bottom;endArrow=block;curved=0;rounded=0;" parent="1" edge="1">
          <mxGeometry width="80" relative="1" as="geometry">
            <mxPoint x="480" y="320" as="sourcePoint" />
            <mxPoint x="660" y="320" as="targetPoint" />
          </mxGeometry>
        </mxCell>
        <mxCell id="1ngA957U-weyeT3DhX0T-8" value="Правила(нормализация) по созданию БД и информац. систем" style="html=1;verticalAlign=bottom;endArrow=block;curved=0;rounded=0;entryX=0.465;entryY=-0.003;entryDx=0;entryDy=0;entryPerimeter=0;" parent="1" target="1ngA957U-weyeT3DhX0T-1" edge="1">
          <mxGeometry x="-1" width="80" relative="1" as="geometry">
            <mxPoint x="400" y="210" as="sourcePoint" />
            <mxPoint x="480" y="160" as="targetPoint" />
            <mxPoint as="offset" />
          </mxGeometry>
        </mxCell>
        <mxCell id="_qA0wj6rMJiyONMpc9HV-4" value="Личные данные администратора" style="html=1;verticalAlign=bottom;endArrow=block;curved=0;rounded=0;entryX=0;entryY=0.857;entryDx=0;entryDy=0;entryPerimeter=0;" parent="1" target="1ngA957U-weyeT3DhX0T-1" edge="1">
          <mxGeometry width="80" relative="1" as="geometry">
            <mxPoint x="140" y="360" as="sourcePoint" />
            <mxPoint x="240" y="360" as="targetPoint" />
          </mxGeometry>
        </mxCell>
        <mxCell id="_qA0wj6rMJiyONMpc9HV-7" value="Администратор" style="html=1;verticalAlign=bottom;endArrow=block;curved=0;rounded=0;entryX=0.333;entryY=1;entryDx=0;entryDy=0;entryPerimeter=0;" parent="1" edge="1">
          <mxGeometry x="-0.3327" y="50" width="80" relative="1" as="geometry">
            <mxPoint x="370.05" y="460" as="sourcePoint" />
            <mxPoint x="370.00000000000006" y="370" as="targetPoint" />
            <mxPoint as="offset" />
          </mxGeometry>
        </mxCell>
        <mxCell id="_qA0wj6rMJiyONMpc9HV-8" value="Служащий" style="html=1;verticalAlign=bottom;endArrow=block;curved=0;rounded=0;entryX=0.8;entryY=1;entryDx=0;entryDy=0;entryPerimeter=0;" parent="1" edge="1">
          <mxGeometry x="-0.3333" y="-30" width="80" relative="1" as="geometry">
            <mxPoint x="430" y="460" as="sourcePoint" />
            <mxPoint x="430" y="370" as="targetPoint" />
            <mxPoint as="offset" />
          </mxGeometry>
        </mxCell>
        <mxCell id="pRA79_hlSP51yVPIUS5q-1" value="&lt;h1&gt;Функциональная диаграмма (нотация IDF0)&lt;/h1&gt;" style="text;html=1;strokeColor=none;fillColor=none;spacing=5;spacingTop=-20;whiteSpace=wrap;overflow=hidden;rounded=0;" vertex="1" parent="1">
          <mxGeometry width="220" height="120" as="geometry" />
        </mxCell>
      </root>
    </mxGraphModel>
  </diagram>
</mxfile>
